<svg xmlns="http://www.w3.org/2000/svg" viewBox="0 0 24 24" width="24" height="24">
  <defs>
    <linearGradient id="cloud-badge-blue" x1="0" y1="0" x2="1" y2="1">
      <stop offset="0%" stop-color="#E8EFF4"/>
      <stop offset="100%" stop-color="#A3C4DE"/>
    </linearGradient>
  </defs>
  <rect x="0.5" y="0.5" width="23" height="23" rx="5" ry="5" fill="url(#cloud-badge-blue)" stroke="#448FD1" stroke-width="1"/>
  <g transform="translate(3.6 3.6) scale(0.7)">
    <path d="M19 12h-1.5v-.5C17.5 8.47 15.03 6 12 6c-1.8 0-3.39.88-4.4 2.22 2.54.7 4.4 3.02 4.4 5.78h-2c0-2.21-1.79-4-4-4s-4 1.79-4 4 1.79 4 4 4h13c1.65 0 3-1.35 3-3s-1.35-3-3-3" fill="#084A79" opacity=".3"/>
    <path d="M19.35 10.04C18.67 6.59 15.64 4 12 4 9.11 4 6.61 5.64 5.36 8.04 2.35 8.36 0 10.9 0 14c0 3.31 2.69 6 6 6h13c2.76 0 5-2.24 5-5 0-2.64-2.05-4.78-4.65-4.96M19 18H6c-2.21 0-4-1.79-4-4s1.79-4 4-4 4 1.79 4 4h2c0-2.76-1.86-5.08-4.4-5.78C8.61 6.88 10.2 6 12 6c3.03 0 5.5 2.47 5.5 5.5v.5H19c1.65 0 3 1.35 3 3s-1.35 3-3 3" fill="#084A79"/>
  </g>
</svg>
