<svg width="330" height="97" viewBox="0 0 330 97" fill="none" xmlns="http://www.w3.org/2000/svg">
<path d="M0 15C0 12.7909 1.79086 11 4 11H84V91C84 93.2091 82.2091 95 80 95H4C1.79086 95 0 93.2091 0 91V15Z" fill="#512BD4"/>
<path d="M0 39C0 36.7908 1.79086 35 4 35H60V91C60 93.2091 58.2091 95 56 95H4C1.79086 95 0 93.2091 0 91V39Z" fill="#6F4EDF"/>
<path d="M0 65C0 62.7908 1.79086 61 4 61H34V91C34 93.2091 32.2091 95 30 95H4C1.79086 95 0 93.2091 0 91V65Z" fill="#8C75DB"/>
<path d="M95.8097 39.3125C94.9479 39.3125 94.2093 39.0095 93.5938 38.4034C92.9782 37.7973 92.6752 37.0587 92.6847 36.1875C92.6752 35.3352 92.9782 34.6061 93.5938 34C94.2093 33.3939 94.9479 33.0909 95.8097 33.0909C96.643 33.0909 97.3674 33.3939 97.983 34C98.608 34.6061 98.9252 35.3352 98.9347 36.1875C98.9252 36.7652 98.7737 37.2907 98.4801 37.7642C98.196 38.2377 97.8172 38.6165 97.3438 38.9006C96.8797 39.1752 96.3684 39.3125 95.8097 39.3125ZM128.377 9.90909V39H123.69L109.982 19.1847H109.741V39H104.471V9.90909H109.187L122.88 29.7386H123.136V9.90909H128.377ZM134.119 39V9.90909H153.04V14.3267H139.389V22.2244H152.06V26.642H139.389V34.5824H153.153V39H134.119ZM157.138 14.3267V9.90909H180.348V14.3267H171.357V39H166.129V14.3267H157.138Z" fill="black"/>
<path d="M98.7273 71H94.2912V57.9091H98.8168C100.116 57.9091 101.233 58.1712 102.166 58.6953C103.104 59.2152 103.824 59.9631 104.327 60.9389C104.83 61.9148 105.081 63.0824 105.081 64.4418C105.081 65.8054 104.827 66.9773 104.32 67.9574C103.817 68.9375 103.091 69.6896 102.141 70.2138C101.195 70.7379 100.057 71 98.7273 71ZM96.6626 68.9482H98.6122C99.5241 68.9482 100.285 68.782 100.894 68.4496C101.504 68.1129 101.962 67.6122 102.268 66.9474C102.575 66.2784 102.729 65.4432 102.729 64.4418C102.729 63.4403 102.575 62.6094 102.268 61.9489C101.962 61.2841 101.508 60.7876 100.907 60.4595C100.31 60.1271 99.5689 59.9609 98.6825 59.9609H96.6626V68.9482ZM110.057 71.1982C109.435 71.1982 108.875 71.0874 108.376 70.8658C107.882 70.6399 107.49 70.3075 107.2 69.8686C106.914 69.4297 106.772 68.8885 106.772 68.245C106.772 67.6911 106.874 67.233 107.078 66.8707C107.283 66.5085 107.562 66.2188 107.916 66.0014C108.27 65.7841 108.668 65.62 109.111 65.5092C109.559 65.3942 110.021 65.3111 110.498 65.2599C111.074 65.2003 111.54 65.147 111.898 65.1001C112.256 65.049 112.516 64.9723 112.678 64.87C112.844 64.7635 112.927 64.5994 112.927 64.3778V64.3395C112.927 63.858 112.784 63.4851 112.499 63.2209C112.213 62.9567 111.802 62.8246 111.265 62.8246C110.699 62.8246 110.249 62.9482 109.917 63.1953C109.588 63.4425 109.367 63.7344 109.252 64.071L107.091 63.7642C107.262 63.1676 107.543 62.669 107.935 62.2685C108.327 61.8636 108.806 61.5611 109.373 61.3608C109.94 61.1562 110.566 61.054 111.252 61.054C111.725 61.054 112.196 61.1094 112.665 61.2202C113.134 61.331 113.562 61.5142 113.95 61.7699C114.338 62.0213 114.649 62.3643 114.883 62.799C115.122 63.2337 115.241 63.777 115.241 64.429V71H113.017V69.6513H112.94C112.799 69.924 112.601 70.1797 112.346 70.4183C112.094 70.6527 111.777 70.8423 111.393 70.9872C111.014 71.1278 110.569 71.1982 110.057 71.1982ZM110.658 69.4979C111.123 69.4979 111.525 69.4062 111.866 69.223C112.207 69.0355 112.469 68.7884 112.652 68.4815C112.84 68.1747 112.934 67.8402 112.934 67.478V66.321C112.861 66.3807 112.738 66.4361 112.563 66.4872C112.392 66.5384 112.201 66.5831 111.988 66.6214C111.775 66.6598 111.564 66.6939 111.355 66.7237C111.146 66.7536 110.965 66.7791 110.811 66.8004C110.466 66.8473 110.157 66.924 109.885 67.0305C109.612 67.1371 109.397 67.2862 109.239 67.478C109.081 67.6655 109.002 67.9084 109.002 68.2067C109.002 68.6328 109.158 68.9545 109.469 69.1719C109.78 69.3892 110.176 69.4979 110.658 69.4979ZM122.471 61.1818V62.9716H116.826V61.1818H122.471ZM118.22 58.8295H120.534V68.0469C120.534 68.358 120.581 68.5966 120.674 68.7628C120.772 68.9247 120.9 69.0355 121.058 69.0952C121.216 69.1548 121.39 69.1847 121.582 69.1847C121.727 69.1847 121.859 69.174 121.978 69.1527C122.102 69.1314 122.196 69.1122 122.26 69.0952L122.65 70.9041C122.526 70.9467 122.349 70.9936 122.119 71.0447C121.893 71.0959 121.616 71.1257 121.288 71.1342C120.708 71.1513 120.186 71.0639 119.722 70.8722C119.257 70.6761 118.889 70.3736 118.616 69.9645C118.348 69.5554 118.216 69.044 118.22 68.4304V58.8295ZM127.231 71.1982C126.609 71.1982 126.048 71.0874 125.55 70.8658C125.056 70.6399 124.664 70.3075 124.374 69.8686C124.088 69.4297 123.945 68.8885 123.945 68.245C123.945 67.6911 124.048 67.233 124.252 66.8707C124.457 66.5085 124.736 66.2188 125.09 66.0014C125.443 65.7841 125.842 65.62 126.285 65.5092C126.732 65.3942 127.195 65.3111 127.672 65.2599C128.247 65.2003 128.714 65.147 129.072 65.1001C129.43 65.049 129.69 64.9723 129.852 64.87C130.018 64.7635 130.101 64.5994 130.101 64.3778V64.3395C130.101 63.858 129.958 63.4851 129.673 63.2209C129.387 62.9567 128.976 62.8246 128.439 62.8246C127.872 62.8246 127.423 62.9482 127.09 63.1953C126.762 63.4425 126.541 63.7344 126.426 64.071L124.265 63.7642C124.436 63.1676 124.717 62.669 125.109 62.2685C125.501 61.8636 125.98 61.5611 126.547 61.3608C127.114 61.1562 127.74 61.054 128.426 61.054C128.899 61.054 129.37 61.1094 129.839 61.2202C130.308 61.331 130.736 61.5142 131.124 61.7699C131.512 62.0213 131.823 62.3643 132.057 62.799C132.296 63.2337 132.415 63.777 132.415 64.429V71H130.191V69.6513H130.114C129.973 69.924 129.775 70.1797 129.519 70.4183C129.268 70.6527 128.95 70.8423 128.567 70.9872C128.188 71.1278 127.742 71.1982 127.231 71.1982ZM127.832 69.4979C128.296 69.4979 128.699 69.4062 129.04 69.223C129.381 69.0355 129.643 68.7884 129.826 68.4815C130.014 68.1747 130.107 67.8402 130.107 67.478V66.321C130.035 66.3807 129.911 66.4361 129.737 66.4872C129.566 66.5384 129.374 66.5831 129.161 66.6214C128.948 66.6598 128.737 66.6939 128.529 66.7237C128.32 66.7536 128.139 66.7791 127.985 66.8004C127.64 66.8473 127.331 66.924 127.058 67.0305C126.786 67.1371 126.57 67.2862 126.413 67.478C126.255 67.6655 126.176 67.9084 126.176 68.2067C126.176 68.6328 126.332 68.9545 126.643 69.1719C126.954 69.3892 127.35 69.4979 127.832 69.4979ZM139.309 71V57.9091H144.218C145.224 57.9091 146.067 58.0966 146.749 58.4716C147.435 58.8466 147.953 59.3622 148.302 60.0185C148.656 60.6705 148.833 61.4119 148.833 62.2429C148.833 63.0824 148.656 63.8281 148.302 64.4801C147.949 65.1321 147.427 65.6456 146.736 66.0206C146.046 66.3913 145.196 66.5767 144.186 66.5767H140.932V64.6271H143.866C144.454 64.6271 144.936 64.5249 145.311 64.3203C145.686 64.1158 145.963 63.8345 146.142 63.4766C146.325 63.1186 146.417 62.7074 146.417 62.2429C146.417 61.7784 146.325 61.3693 146.142 61.0156C145.963 60.6619 145.684 60.3871 145.305 60.1911C144.93 59.9908 144.446 59.8906 143.854 59.8906H141.68V71H139.309ZM153.104 57.9091V71H150.79V57.9091H153.104ZM158.309 71.1982C157.687 71.1982 157.127 71.0874 156.628 70.8658C156.134 70.6399 155.742 70.3075 155.452 69.8686C155.166 69.4297 155.024 68.8885 155.024 68.245C155.024 67.6911 155.126 67.233 155.33 66.8707C155.535 66.5085 155.814 66.2188 156.168 66.0014C156.521 65.7841 156.92 65.62 157.363 65.5092C157.811 65.3942 158.273 65.3111 158.75 65.2599C159.325 65.2003 159.792 65.147 160.15 65.1001C160.508 65.049 160.768 64.9723 160.93 64.87C161.096 64.7635 161.179 64.5994 161.179 64.3778V64.3395C161.179 63.858 161.036 63.4851 160.751 63.2209C160.465 62.9567 160.054 62.8246 159.517 62.8246C158.95 62.8246 158.501 62.9482 158.169 63.1953C157.84 63.4425 157.619 63.7344 157.504 64.071L155.343 63.7642C155.514 63.1676 155.795 62.669 156.187 62.2685C156.579 61.8636 157.058 61.5611 157.625 61.3608C158.192 61.1562 158.818 61.054 159.504 61.054C159.977 61.054 160.448 61.1094 160.917 61.2202C161.386 61.331 161.814 61.5142 162.202 61.7699C162.59 62.0213 162.901 62.3643 163.135 62.799C163.374 63.2337 163.493 63.777 163.493 64.429V71H161.269V69.6513H161.192C161.051 69.924 160.853 70.1797 160.597 70.4183C160.346 70.6527 160.029 70.8423 159.645 70.9872C159.266 71.1278 158.82 71.1982 158.309 71.1982ZM158.91 69.4979C159.374 69.4979 159.777 69.4062 160.118 69.223C160.459 69.0355 160.721 68.7884 160.904 68.4815C161.092 68.1747 161.186 67.8402 161.186 67.478V66.321C161.113 66.3807 160.99 66.4361 160.815 66.4872C160.644 66.5384 160.453 66.5831 160.24 66.6214C160.026 66.6598 159.816 66.6939 159.607 66.7237C159.398 66.7536 159.217 66.7791 159.063 66.8004C158.718 66.8473 158.409 66.924 158.137 67.0305C157.864 67.1371 157.649 67.2862 157.491 67.478C157.333 67.6655 157.254 67.9084 157.254 68.2067C157.254 68.6328 157.41 68.9545 157.721 69.1719C158.032 69.3892 158.428 69.4979 158.91 69.4979ZM168.134 65.2472V71H165.82V61.1818H168.031V62.8501H168.146C168.372 62.3004 168.732 61.8636 169.227 61.5398C169.725 61.2159 170.341 61.054 171.074 61.054C171.752 61.054 172.342 61.1989 172.845 61.4886C173.352 61.7784 173.744 62.1982 174.021 62.7479C174.302 63.2976 174.441 63.9645 174.436 64.7486V71H172.122V65.1065C172.122 64.4503 171.952 63.9368 171.611 63.5661C171.274 63.1953 170.808 63.0099 170.211 63.0099C169.806 63.0099 169.446 63.0994 169.131 63.2784C168.82 63.4531 168.575 63.7067 168.396 64.0391C168.221 64.3714 168.134 64.7741 168.134 65.2472ZM181.135 71.1918C180.151 71.1918 179.301 70.9872 178.585 70.5781C177.873 70.1648 177.325 69.581 176.942 68.8267C176.558 68.0682 176.367 67.1754 176.367 66.1484C176.367 65.1385 176.558 64.2521 176.942 63.4893C177.33 62.7223 177.871 62.1257 178.566 61.6996C179.26 61.2692 180.076 61.054 181.014 61.054C181.619 61.054 182.19 61.152 182.727 61.348C183.268 61.5398 183.745 61.8381 184.159 62.2429C184.576 62.6477 184.904 63.1634 185.143 63.7898C185.382 64.4119 185.501 65.1534 185.501 66.0142V66.7237H177.453V65.1641H183.283C183.279 64.7209 183.183 64.3267 182.995 63.9815C182.808 63.6321 182.546 63.3572 182.209 63.157C181.877 62.9567 181.489 62.8565 181.046 62.8565C180.573 62.8565 180.157 62.9716 179.799 63.2017C179.441 63.4276 179.162 63.7259 178.962 64.0966C178.766 64.4631 178.666 64.8658 178.661 65.3047V66.6662C178.661 67.2372 178.766 67.7273 178.975 68.1364C179.183 68.5412 179.475 68.8523 179.85 69.0696C180.225 69.2827 180.664 69.3892 181.167 69.3892C181.504 69.3892 181.808 69.3423 182.081 69.2486C182.354 69.1506 182.59 69.0078 182.791 68.8203C182.991 68.6328 183.142 68.4006 183.244 68.1236L185.405 68.3665C185.269 68.9375 185.009 69.4361 184.625 69.8622C184.246 70.2841 183.76 70.6122 183.168 70.8466C182.575 71.0767 181.898 71.1918 181.135 71.1918ZM101.406 83.5078C101.346 82.9496 101.094 82.5149 100.651 82.2038C100.212 81.8928 99.6413 81.7372 98.9382 81.7372C98.4439 81.7372 98.0199 81.8118 97.6662 81.9609C97.3125 82.1101 97.0419 82.3125 96.8544 82.5682C96.6669 82.8239 96.571 83.1158 96.5668 83.4439C96.5668 83.7166 96.6286 83.9531 96.7521 84.1534C96.88 84.3537 97.0526 84.5241 97.2699 84.6648C97.4872 84.8011 97.728 84.9162 97.9922 85.0099C98.2564 85.1037 98.5227 85.1825 98.7912 85.2464L100.018 85.5533C100.513 85.6683 100.988 85.8239 101.444 86.0199C101.904 86.2159 102.315 86.4631 102.678 86.7614C103.044 87.0597 103.334 87.4197 103.547 87.8416C103.76 88.2635 103.866 88.7578 103.866 89.3246C103.866 90.0916 103.67 90.767 103.278 91.3509C102.886 91.9304 102.32 92.3842 101.578 92.7124C100.841 93.0362 99.9482 93.1982 98.8999 93.1982C97.8814 93.1982 96.9972 93.0405 96.2472 92.7251C95.5014 92.4098 94.9176 91.9496 94.4957 91.3445C94.0781 90.7393 93.8523 90.0021 93.8182 89.1328H96.1513C96.1854 89.5888 96.326 89.968 96.5732 90.2706C96.8203 90.5732 97.142 90.799 97.5384 90.9482C97.9389 91.0973 98.3864 91.1719 98.8807 91.1719C99.3963 91.1719 99.848 91.0952 100.236 90.9418C100.628 90.7841 100.935 90.5668 101.156 90.2898C101.378 90.0085 101.491 89.6804 101.495 89.3054C101.491 88.9645 101.391 88.6832 101.195 88.4616C100.999 88.2358 100.724 88.0483 100.37 87.8991C100.021 87.7457 99.6115 87.6094 99.1428 87.4901L97.6534 87.1065C96.5753 86.8295 95.723 86.4098 95.0966 85.8473C94.4744 85.2805 94.1634 84.5284 94.1634 83.5909C94.1634 82.8196 94.3722 82.1442 94.7898 81.5646C95.2116 80.9851 95.7848 80.5355 96.5092 80.2159C97.2337 79.892 98.054 79.7301 98.9702 79.7301C99.8991 79.7301 100.713 79.892 101.412 80.2159C102.115 80.5355 102.667 80.9808 103.067 81.5518C103.468 82.1186 103.675 82.7706 103.688 83.5078H101.406ZM110.417 93H105.981V79.9091H110.506C111.806 79.9091 112.922 80.1712 113.856 80.6953C114.793 81.2152 115.513 81.9631 116.016 82.9389C116.519 83.9148 116.77 85.0824 116.77 86.4418C116.77 87.8054 116.517 88.9773 116.01 89.9574C115.507 90.9375 114.78 91.6896 113.83 92.2138C112.884 92.7379 111.746 93 110.417 93ZM108.352 90.9482H110.302C111.214 90.9482 111.974 90.782 112.584 90.4496C113.193 90.1129 113.651 89.6122 113.958 88.9474C114.265 88.2784 114.418 87.4432 114.418 86.4418C114.418 85.4403 114.265 84.6094 113.958 83.9489C113.651 83.2841 113.197 82.7876 112.596 82.4595C112 82.1271 111.258 81.9609 110.372 81.9609H108.352V90.9482ZM119.024 93V79.9091H121.395V85.924H121.555L126.662 79.9091H129.558L124.495 85.7834L129.602 93H126.752L122.846 87.3878L121.395 89.1009V93H119.024Z" fill="black"/>
</svg>
